<?xml version="1.0" standalone="no"?>
<!DOCTYPE svg PUBLIC "-//W3C//DTD SVG 1.1//EN" "http://www.w3.org/Graphics/SVG/1.1/DTD/svg11.dtd" >
<!--
2018-1-20: Created.
-->
<svg xmlns="http://www.w3.org/2000/svg">
<metadata>
Created by FontForge 20120731 at Sat Jan 20 07:20:13 2018
 By icons8

</metadata>
<defs>
<font id="steer" horiz-adv-x="512" >
  <font-face 
    font-family="steer"
    font-weight="500"
    font-stretch="normal"
    units-per-em="512"
    panose-1="2 0 6 3 0 0 0 0 0 0"
    ascent="448"
    descent="-64"
    bbox="-0.115684 -64 512.019 448"
    underline-thickness="25.6"
    underline-position="-51.2"
    unicode-range="U+0020-F118"
  />
    <missing-glyph />
    <glyph glyph-name="space" unicode=" " horiz-adv-x="200" 
 />
    <glyph glyph-name="love" unicode="&#xf110;" 
d="M256 -5.59961l-6.51953 5.39941c-10.2402 8.48047 -24 17.8398 -39.8809 28.6807c-63.0801 43.0391 -158.399 108.079 -158.399 211.8c0 63.7197 52.2002 115.56 116.359 115.56c34.3203 0 66.4404 -14.9199 88.4404 -40.5195
c22 25.5996 54.1602 40.5195 88.4404 40.5195c64.1592 0 116.359 -51.8398 116.359 -115.56c0 -103.721 -95.3193 -168.761 -158.399 -211.8c-15.9199 -10.8408 -29.6406 -20.2002 -39.8809 -28.6807z" />
    <glyph glyph-name="running-person" unicode="&#xf101;" 
d="M353.28 417.28c25.4795 0 46.0801 -20.6406 46.0801 -46.0801c0 -25.4404 -20.6006 -46.0801 -46.0801 -46.0801c-25.4404 0 -46.0801 20.6396 -46.0801 46.0801c0 25.4395 20.6396 46.0801 46.0801 46.0801zM204.8 345.6c1.75977 0 3.52051 -0.239258 5.2002 -0.679688
h0.120117l83.6396 -18.2402l25.6406 -14.3193v-0.0400391c11.2393 -4.83984 18.5195 -15.9199 18.5195 -28.1602c0 -5.32031 -1.40039 -10.5605 -4.04004 -15.2002h0.0400391l-47.8398 -94.5596l55.3203 -49.04l0.0400391 -0.160156
c4.2793 -3.87988 6.71973 -9.36035 6.71973 -15.1201c0 -0.919922 -0.0800781 -1.87988 -0.200195 -2.7998l0.0400391 -0.160156l-20.7598 -109.32h-0.0400391c-2.24023 -12.0801 -12.7998 -20.8398 -25.1201 -20.8398c-14.1201 0 -25.5996 11.4805 -25.5996 25.5996
c0 1.68066 0.15918 3.36035 0.479492 5l17.4805 89.96l-77.2402 47.6406c-13.8398 6.95996 -22.6006 21.1201 -22.6406 36.5996c0 8.60059 2.7207 16.96 7.76074 23.9199v0.0400391l50.5195 82.3203l-45.1602 14.3604l-61.3594 -44.1602l-0.0400391 0.0400391
c-3.68066 -3.12012 -8.32031 -4.83984 -13.1602 -4.83984c-11.3203 0 -20.4805 9.15918 -20.4805 20.4795c0 7.12012 3.7207 13.7598 9.80078 17.4404l70.96 50.9199l0.319336 0.0800781h0.0400391c3.28027 2.12012 7.12012 3.23926 11.04 3.23926zM350.36 256.08
l18.2793 -43.5996h61.4404c11.3203 0 20.4795 -9.16016 20.4795 -20.4805s-9.15918 -20.4805 -20.4795 -20.4805h-71.6797c-8.2002 0 -15.2402 4.84082 -18.5205 11.8408l-0.0800781 0.0400391l-12.3994 27.3193zM179.36 157.04
c5.2793 -11.8398 14.2393 -21.9199 25.9199 -28.5596c0.0800781 -0.0400391 6.2002 -3.84082 14.6797 -9.08008l-23.4004 -33c-7.67969 -10.8408 -20.1191 -17.2803 -33.3994 -17.2803h-86.3604c-14.1602 0 -25.5996 11.4395 -25.5996 25.5996
s11.4395 25.6006 25.5996 25.6006h79.2803z" />
    <glyph glyph-name="linkedin" unicode="&#xf117;" 
d="M419.84 407.04c28.2627 0 51.2002 -22.9375 51.2002 -51.2002v-327.68c0 -28.2627 -22.9375 -51.2002 -51.2002 -51.2002h-327.68c-28.2627 0 -51.2002 22.9375 -51.2002 51.2002v327.68c0 28.2627 22.9375 51.2002 51.2002 51.2002h327.68zM174.08 243.2h-61.4404
v-194.561h61.4404v194.561zM112.64 299.827c0 -14.3359 12.2881 -25.9072 30.7207 -25.9072c19.251 0 30.7197 11.5713 30.7197 25.9072c-0.716797 14.3359 -12.2881 25.293 -30.7197 25.293c-18.4326 0 -30.7207 -10.957 -30.7207 -25.293zM399.36 48.6396v109.978
c0 56.6279 -32.9736 84.583 -73.626 84.583c-39.7314 0 -59.4941 -26.2148 -59.4941 -26.2148v26.2148h-61.4404v-194.561h61.4404v102.4c0 20.2754 10.2402 41.3691 35.0205 41.3691h0.819336c25.5996 -0.40918 35.8398 -20.8896 35.8398 -41.3691v-102.4h61.4404z" />
    <glyph glyph-name="handball" unicode="&#xf105;" 
d="M174.08 448c22.6396 0 40.96 -18.3203 40.96 -40.96s-18.3203 -40.96 -40.96 -40.96s-40.96 18.3203 -40.96 40.96s18.3203 40.96 40.96 40.96zM343.04 407.04c25.5996 0 46.0801 -20.4805 46.0801 -46.0801s-20.4805 -46.0801 -46.0801 -46.0801
s-46.0801 20.4805 -46.0801 46.0801s20.4805 46.0801 46.0801 46.0801zM114.24 386.24c5.59961 0.120117 12.4795 -2.56055 19.8398 -8.95996c12.2803 -9.2002 52.1602 -43.8398 52.1602 -43.8398l64.6396 -5.12012s17.2803 -1.16016 32.6396 -8.32031
c12.2803 -5.12012 50.1602 -25.7197 66.5605 -33.9199c4.08008 -2.04004 7.16016 -4.91992 10.2402 -8l55.3594 -69.7598c5.12012 -7.16016 4.2002 -16.2002 3.2002 -23.3604c-6.16016 -19.4404 -16.5195 -43.2002 -18.5596 -48.3203
c-3.08008 -7.15918 -9.44043 -19.3594 -22.4004 -15.3594s-13.5596 16.2002 -11.5195 23.3594c2.04004 8.2002 9.7998 27.0801 11.8398 34.2402c1.04004 7.16016 3 11.2002 -4.16016 16.3203c-6.12012 5.12012 -37.7598 31.6797 -37.7598 31.6797l-169.601 -270.08
s-15.2393 -26.6797 -32.6396 -19.5195c-19.4404 7.16016 -9.28027 24.6396 -4.16016 34.8799c6.16016 12.2803 92.1602 191.04 92.1602 191.04s-69.5205 -70.5205 -83.8398 -83.8398c-21.5205 -20.4805 -42.8799 -5.04004 -32.6406 14.3994
c15.3604 29.6807 41.9199 67.5205 41.9199 67.5205l77.7607 120.96l-48 8c-5.12012 1.04004 -8.40039 4.24023 -12.4805 8.31934c-13.3193 13.3203 -47.9199 51.0801 -54.0801 58.2402c-14.0801 15.4805 -8.7998 29.1201 3.52051 29.4404z" />
    <glyph glyph-name="dumbbell" unicode="&#xf103;" 
d="M143.36 355.84h20.4795c11.3203 0 20.4805 -9.16016 20.4805 -20.4795v-112.641h143.359v112.641c0 11.3193 9.16016 20.4795 20.4805 20.4795h20.4795c11.3203 0 20.4805 -9.16016 20.4805 -20.4795v-286.721c0 -11.3193 -9.16016 -20.4795 -20.4805 -20.4795h-20.4795
c-11.3203 0 -20.4805 9.16016 -20.4805 20.4795v112.641h-143.359v-112.641c0 -11.3193 -9.16016 -20.4795 -20.4805 -20.4795h-20.4795c-11.3203 0 -20.4805 9.16016 -20.4805 20.4795v286.721c0 11.3193 9.16016 20.4795 20.4805 20.4795zM71.6797 314.88h30.7207v-245.76
h-30.7207c-11.3193 0 -20.4795 9.16016 -20.4795 20.4795v204.801c0 11.3193 9.16016 20.4795 20.4795 20.4795zM409.6 314.88h30.7207c11.3193 0 20.4795 -9.16016 20.4795 -20.4795v-204.801c0 -11.3193 -9.16016 -20.4795 -20.4795 -20.4795h-30.7207v245.76z
M10.2402 222.72h20.4795v-61.4395h-20.4795c-5.64062 0 -10.2402 4.59961 -10.2402 10.2393v40.9609c0 5.63965 4.59961 10.2393 10.2402 10.2393zM481.28 222.72h20.4795c5.64062 0 10.2402 -4.59961 10.2402 -10.2393v-40.9609
c0 -5.63965 -4.59961 -10.2393 -10.2402 -10.2393h-20.4795v61.4395z" />
    <glyph glyph-name="more-info" unicode="&#xf112;" 
d="M256 427.52c130.079 0 235.52 -105.44 235.52 -235.52s-105.44 -235.52 -235.52 -235.52s-235.52 105.44 -235.52 235.52s105.44 235.52 235.52 235.52zM256 335.36c-16.9678 0 -30.7197 -13.7529 -30.7197 -30.7207s13.752 -30.7197 30.7197 -30.7197
s30.7197 13.752 30.7197 30.7197s-13.752 30.7207 -30.7197 30.7207zM296.96 58.8799v20.4805h-20.4795v133.12v20.4795h-40.9609h-20.4795v-20.4795h20.4795v-133.12h-20.4795v-20.4805h20.4795h40.9609h20.4795z" />
    <glyph glyph-name="rower-in-canoe" unicode="&#xf10a;" 
d="M373.44 414.08l3.19922 -8.95996c0.520508 -1.44043 12.6807 -35.4004 12.8008 -64.96c0.0791016 -16.7197 0.0400391 -45.0801 -16 -58.2402l50.2393 -213.76c33.2402 -13.8799 48.96 -43.3203 55.6807 -60.4805c8.91992 7.80078 14.2393 13.5605 14.3994 13.7607
c3.56055 4.43945 10 5.11914 14.4004 1.59961c4.39941 -3.55957 5.16016 -10 1.59961 -14.4004c-1.83984 -2.31934 -39.7598 -48.5596 -110.08 -63.6797l-0.959961 -0.320312v0.320312c-13.6396 -2.87988 -28.4395 -4.47949 -44.4795 -4.47949
c-43.5205 0 -88.2402 23.7598 -131.521 46.7197c-39.7998 21.1602 -77.2793 40.96 -110.08 40.96c-64.5996 0 -92 -61.6797 -93.1201 -64.3203c-2.23926 -5.2002 -8.2793 -7.67969 -13.4395 -5.43945c-5.2002 2.23926 -7.32031 8.23926 -5.12012 13.4395
c1.28027 3 31.2803 71.2803 103.68 76.1602c3.2002 20.6396 18.0801 90.1201 79.6807 131.52c13.6396 65.5605 75.7998 93.8008 115.52 105.28c9.04004 -11.3193 21.4004 -22.5195 37.1201 -27.5195l1.59961 -6.7207c-20.3994 -3.51953 -36 -8.95996 -48.96 -17.5996
c-35.6797 -1.16016 -64.3193 -30.5996 -64.3193 -66.5596c0 -36.7207 29.8398 -66.5605 66.5596 -66.5605c3.75977 0 7.60059 0.360352 11.2002 0.959961c10.2402 -5 21.2803 -8.63965 32.6396 -8.63965c15.2402 0 28.6807 1.95996 39.3604 4.47949l7.04004 -29.7598
c-1.2002 -1.95996 -2.44043 -4.16016 -3.52051 -6.39941c-11.6797 -1.80078 -25.4795 -3.2002 -41.2793 -3.2002c-45.4404 0 -83.2002 18.8799 -83.2002 18.8799s-15.96 -18.7598 -15.04 -32.3203c58.2002 -16.7598 91.2002 -62.3203 103.36 -82.2402
c4.04004 -0.439453 7.87988 -0.639648 11.8398 -0.639648c14.5195 0 27.96 1.52051 40.3193 4.16016c-12.5996 66.5195 1.48047 87.8398 9.60059 97.2803l-50.2402 212.479c-22.4395 0.200195 -41.5195 23.3203 -51.8398 44.7998
c-12.2402 25.5205 -20.7598 58.1201 -21.1201 59.5205l-2.24023 9.91992zM291.84 212.48c25.4404 0 46.0801 -20.6406 46.0801 -46.0801c0 -25.4404 -20.6396 -46.0801 -46.0801 -46.0801c-25.4395 0 -46.0801 20.6396 -46.0801 46.0801
c0 25.4395 20.6406 46.0801 46.0801 46.0801z" />
    <glyph glyph-name="no" unicode="&#xf111;" 
d="M93.7598 383.36l162.24 -162.24l162.24 162.24l29.1201 -29.1201l-162.24 -162.24l163.2 -163.2l-29.1201 -29.1201l-163.2 163.2l-163.52 -163.2l-28.8008 28.8008l163.2 163.52l-162.24 162.24z" />
    <glyph glyph-name="basketball-ball" unicode="&#xf10b;" 
d="M245.76 427.28v-225.04h-72.2002c-3.67969 63.2002 -41.1592 117.359 -94.6797 144.72c41.1201 46.9199 100.44 77.4404 166.88 80.3203zM266.24 427.28c66.4395 -2.87988 125.76 -33.4004 166.88 -80.3203c-53.5205 -27.3604 -91 -81.5195 -94.6797 -144.72h-72.2002
v225.04zM65.7598 330.6c48.9199 -23.3193 83.5605 -71.5996 87.3203 -128.359h-132.36c2.08008 47.8398 18.4805 92 45.04 128.359zM446.24 330.6c26.5596 -36.3594 42.96 -80.5195 45 -128.359h-132.32c3.75977 56.7598 38.4004 105.04 87.3203 128.359zM20.7197 181.76
h132.36c-3.75977 -56.7598 -38.4004 -105.04 -87.3203 -128.359c-26.5596 36.3594 -42.96 80.5195 -45.04 128.359zM173.56 181.76h72.2002v-225c-66.4395 2.83984 -125.8 33.3604 -166.88 80.2402c53.5205 27.4004 90.96 81.5596 94.6797 144.76zM266.24 181.76h72.2002
c3.67969 -63.2002 41.1592 -117.359 94.6797 -144.76c-41.1201 -46.8799 -100.44 -77.4004 -166.88 -80.2402v225zM358.92 181.76h132.32c-2.04004 -47.8398 -18.4404 -92 -45 -128.359c-48.9199 23.3193 -83.5605 71.5996 -87.3203 128.359z" />
    <glyph glyph-name="attack" unicode="&#xf10d;" 
d="M132.8 438.08c3.28027 -0.0800781 6.52051 -0.719727 9.60059 -2.24023c6.15918 -3.08008 11.0801 -8.24023 13.1191 -14.3994c2.04004 -6.16016 2.12012 -13.3604 -0.959961 -19.5205l-27.5195 -57.2803l30.7197 -50.2393l79.6807 -34.8809l61.4395 -40l65.6006 6.40039
c13.3193 1.04004 26.7598 -8.43945 28.7998 -21.7598c1.04004 -7.16016 -1.04004 -14.0801 -5.12012 -19.2002c-4.08008 -6.16016 -10.4404 -9.2002 -17.6006 -10.2402l-78.7197 -8.31934c-8.2002 -1.04004 -16.5195 1.04004 -23.6797 5.11914l-46.0801 28.8008
l-16.3203 -61.4404l152.641 -132.16c6.15918 -5.12012 9.19922 -11.3193 10.2393 -19.5195s-1.91992 -15.2803 -7.04004 -21.4404c-10.2393 -11.2793 -26.7998 -12.3594 -38.0801 -4.16016l-176 142.4l-55.3594 -38.0801v-78.7197
c0 -16.4004 -13.3203 -30.7197 -30.7197 -30.7197c-17.4004 0 -30.7207 13.3193 -30.7207 30.7197v88.96c0 16.3994 7.24023 31.9199 19.5205 43.2002l50.2402 38.7197l18.2393 74.8799l-43.8398 94.0801c-4.08008 9.2002 -4.16016 20.5596 0.959961 29.7598
l32.6406 66.5605c4.59961 9.19922 14.5195 15 24.3193 14.7197zM75.5195 436.8c1.36035 0.240234 2.96094 0.240234 4.48047 0l11.2002 -2.24023c0 -1.04004 -0.959961 -0.879883 -0.959961 -1.91992l-8.32031 -17.2793l-7.04004 0.959961
c-5.12012 2.04004 -9.39941 7.04004 -7.36035 12.1602c0.760742 4.59961 3.9209 7.59961 8 8.31934zM178.24 413.12l296.96 -70.7197c5.12012 -1.04004 9.04004 -7.04004 8 -12.1602s-5.12012 -8.32031 -10.2402 -8.32031h-1.91992l-296.96 70.7197
c3.08008 7.16016 4.16016 13.3203 4.16016 20.4805zM220.16 376.32c25.5996 0 46.0801 -20.4805 46.0801 -46.0801c0 -25.6006 -20.4805 -46.0801 -46.0801 -46.0801c-25.6006 0 -46.0801 20.4795 -46.0801 46.0801c0 25.5996 20.4795 46.0801 46.0801 46.0801z" />
    <glyph glyph-name="acrobatics" unicode="&#xf109;" 
d="M441.36 427.28c2.04004 0 4.08008 -0.280273 6.12012 -0.799805c8.19922 -2.04004 15.3594 -6.12012 19.4395 -13.2803c9.24023 -14.3604 5.12012 -33.7998 -9.2002 -42l-160.76 -97.2803v-63.5195l142.84 32.1992l0.0400391 -0.0400391
c1.83984 0.400391 3.71973 0.640625 5.60059 0.640625c14.1191 0 25.5996 -11.4805 25.5996 -25.6006c0 -11.96 -8.32031 -22.3193 -20 -24.96l-154.88 -34.9199l-40.1602 -24.0801v-141.319c0 -14.3203 -11.2803 -25.6006 -25.5996 -25.6006
c-14.3203 0 -25.6006 11.2803 -25.6006 25.6006v281.6h-143.359c-17.4004 0 -30.7207 13.3203 -30.7207 30.7197c0 17.4004 13.3203 30.7207 30.7207 30.7207h221.159l141.36 87.04c5.36035 3.08008 11.3203 5 17.4004 4.87988zM337.92 140.8
c28.6797 0 51.2002 -22.5195 51.2002 -51.2002c0 -28.6797 -22.5205 -51.1992 -51.2002 -51.1992s-51.2002 22.5195 -51.2002 51.1992c0 28.6807 22.5205 51.2002 51.2002 51.2002z" />
    <glyph glyph-name="fight-gloves" unicode="&#xf106;" 
d="M282.56 448c134.881 0 178.24 -33.5996 178.24 -138.24c0 -93.5996 -14.0801 -216.96 -54.0801 -256.96c-23.2393 -23.2402 -124.16 -28.4795 -160.96 -28.4795c-21.7998 0 -50.6396 1.23926 -64.3193 6.71973c-2.9209 1.16016 -6.28027 2.32031 -9.9209 3.51953
c-32 10.6406 -85.3994 28.1602 -130.88 147.521c-19.3994 49.0801 -6.35938 80.3203 3.2002 94.4004c10.4004 15.2393 26.6006 24.8398 43.8398 27.1992c7.40039 -67.3193 27.1201 -112.199 36.8008 -134.399c1.31934 -2.95996 2.31934 -5.56055 3.19922 -7.68066
c1.60059 -3.95996 5.56055 -6.39941 9.60059 -6.39941c1.2793 0 2.55957 0.120117 3.83984 0.639648c5.24023 2.16016 7.59961 8.2002 5.43945 13.4404c-0.919922 2.23926 -1.83984 4.83984 -3.19922 8c-10.4004 23.7998 -32.6807 75.2793 -37.1201 153.279
c5.63965 88.3203 51.2793 117.44 176.319 117.44zM418.88 36.1602c-1.47949 -25.8398 -5 -58.6406 -13.4395 -74.2402c-9.36035 -18.7598 -40.3203 -25.9199 -113.601 -25.9199c-70.2002 0 -97.9199 4.75977 -113.6 19.2002
c-7.91992 7.91992 -13.3203 23.96 -20.1602 62.0801c2.43945 -0.839844 4.83984 -1.52051 7.04004 -2.24023c3.43945 -1.16016 6.43945 -2.2002 8.95996 -3.2002c4.91992 -1.95996 19.96 -8 71.6797 -8c23.04 0 137.721 1.52051 173.12 32.3203z" />
    <glyph glyph-name="linkedin-2" unicode="&#xf118;" 
d="M92.1602 407.04h327.68c28.1553 0 51.2002 -23.0449 51.2002 -51.2002v-327.68c0 -28.1553 -23.0449 -51.2002 -51.2002 -51.2002h-327.68c-28.1553 0 -51.2002 23.0449 -51.2002 51.2002v327.68c0 28.1553 23.0449 51.2002 51.2002 51.2002zM92.1602 386.56
c-17.085 0 -30.7197 -13.6338 -30.7197 -30.7197v-327.68c0 -17.085 13.6348 -30.7197 30.7197 -30.7197h327.68c17.085 0 30.7197 13.6348 30.7197 30.7197v327.68c0 17.0859 -13.6348 30.7197 -30.7197 30.7197h-327.68zM143.36 335.24
c22.4297 0 39.7773 -15.3818 40.8193 -34.8398c0.00976562 -0.149414 0.0185547 -0.391602 0.0205078 -0.540039c0 -19.7559 -17.5645 -36.0605 -40.8398 -36.0605c-0.884766 0.0126953 -2.2832 0.254883 -3.12012 0.540039
c-0.0117188 0.00585938 -0.0292969 0.0146484 -0.0400391 0.0205078c-21.0957 1.47363 -37.6807 16.3799 -37.6807 35.5c0 10.0586 4.58789 19.4521 12.0605 25.7393c7.47266 6.28809 17.5645 9.64062 28.7803 9.64062zM143.36 315
c-7.21777 0 -12.4814 -2.12109 -15.7607 -4.87988c-3.2793 -2.75977 -4.83984 -5.98242 -4.83984 -10.2598c0 -8.55469 6.41406 -15.8203 20.6006 -15.8203c14.9512 0 20.375 6.79199 20.5 15.5596c-0.614258 9.0332 -6.24414 15.4004 -20.5 15.4004zM112.64 253.44h61.4404
c5.65137 -0.000976562 10.2393 -4.58887 10.2402 -10.2402v-134.5v-60.0605c-0.000976562 -5.65137 -4.58887 -10.2393 -10.2402 -10.2393h-61.4404c-5.65137 0 -10.2393 4.58789 -10.2393 10.2393v194.561c0 5.65137 4.58789 10.2393 10.2393 10.2402zM204.8 253.44
h61.4404c5.65137 -0.000976562 10.2393 -4.58887 10.2402 -10.2402v-4.33984c11.375 7.36133 27.7549 14.5801 49.2793 14.5801c22.6475 0 44.0625 -7.98828 59.46 -24.2402c15.3975 -16.2529 24.3799 -40.2744 24.3799 -70.6006v-109.96
c0 -5.65137 -4.58789 -10.2393 -10.2393 -10.2393h-61.4404c-5.65234 0 -10.2393 4.58789 -10.2402 10.2393v102.4c0 8.5332 -2.25684 16.6719 -6.2998 22.0996c-4.04199 5.42871 -9.38574 8.88672 -19.4795 9.06055c-9.78906 0.173828 -14.9385 -3.14746 -19.0205 -8.68066
c-4.08203 -5.53223 -6.39941 -13.9834 -6.39941 -22.4795v-102.4c-0.000976562 -5.65137 -4.58887 -10.2393 -10.2402 -10.2393h-61.4404c-5.65137 0 -10.2393 4.58789 -10.2402 10.2393v194.561c0.000976562 5.65137 4.58887 10.2393 10.2402 10.2402zM122.88 232.96
v-174.08h40.96v49.8203v124.26h-40.96zM215.04 232.96v-174.08h40.96v92.1602c0 11.9844 2.90527 24.46 10.4004 34.6201c7.49414 10.1592 20.2734 17.2969 35.8594 17.0195c15.5059 -0.266602 28.083 -7.25781 35.5605 -17.2998
c7.47754 -10.041 10.3398 -22.3936 10.3398 -34.3398v-92.1602h40.96v99.7197c0 26.3525 -7.51074 44.6465 -18.7598 56.5205c-11.25 11.874 -26.6465 17.8398 -44.6006 17.8398c-35.2588 0 -51.3398 -22.1396 -51.3398 -22.1396
c-1.69629 -2.25098 -5.36035 -4.07812 -8.17871 -4.07812c-5.65137 0 -10.2393 4.58691 -10.2412 10.2383v15.9795h-40.96z" />
    <glyph glyph-name="facebook-2" unicode="&#xf116;" 
d="M419.84 407.04c28.2627 0 51.2002 -22.9375 51.2002 -51.2002v-327.68c0 -28.2627 -22.9375 -51.2002 -51.2002 -51.2002h-327.68c-28.2627 0 -51.2002 22.9375 -51.2002 51.2002v327.68c0 28.2627 22.9375 51.2002 51.2002 51.2002h327.68zM378.88 253.44v40.96
s-11.2637 10.2393 -40.96 10.2393c-40.96 0 -61.4395 -30.7197 -61.4395 -71.6797v-30.7197h-40.9609v-51.2002h40.9609v-153.6h51.1992v153.6h40.96l10.2402 51.2002h-51.2002v30.7197c0 15.3604 8.80664 20.4805 30.7207 20.4805h20.4795z" />
    <glyph glyph-name="facebook" unicode="&#xf115;" 
d="M92.1602 407.04h327.68c28.1553 0 51.2002 -23.0449 51.2002 -51.2002v-327.68c0 -28.1553 -23.0449 -51.2002 -51.2002 -51.2002h-90.54c-0.458008 -0.0751953 -1.20605 -0.136719 -1.66992 -0.136719s-1.21191 0.0615234 -1.66992 0.136719h-58.0996
c-0.458008 -0.0751953 -1.20605 -0.136719 -1.66992 -0.136719c-0.464844 0 -1.21289 0.0615234 -1.6709 0.136719h-172.359c-28.1553 0 -51.2002 23.0449 -51.2002 51.2002v327.68c0 28.1553 23.0449 51.2002 51.2002 51.2002zM92.1602 386.56
c-17.085 0 -30.7197 -13.6338 -30.7197 -30.7197v-327.68c0 -17.085 13.6348 -30.7197 30.7197 -30.7197h163.84v143.359h-30.7197v71.6807h30.7197v20.4795c0 22.1865 5.4873 42.46 17.5996 57.5996c12.1123 15.1406 31.04 24.3203 54.0801 24.3203
c32.0781 0 55.6006 -11.2402 55.6006 -11.2402l5.83984 -2.7793v-57.6602h-30.7197c-10.1807 0 -16.1035 -1.59473 -18.0205 -2.83984s-2.45996 -1.69141 -2.45996 -7.40039v-20.4795h53.46l-14.3398 -71.6807h-39.1201v-143.359h81.9199
c17.085 0 30.7197 13.6348 30.7197 30.7197v327.68c0 17.0859 -13.6348 30.7197 -30.7197 30.7197h-327.68zM327.68 294.4c-17.9199 0 -29.7119 -6.18066 -38.0801 -16.6406c-8.36719 -10.459 -13.1191 -26.0264 -13.1191 -44.7998v-40.96h-30.7207v-30.7197h30.7207
v-163.84h40.96v163.84h42.7998l6.13965 30.7197h-48.9395v40.96c0 9.61035 3.82715 19.415 11.7793 24.5801s17.3955 6.13965 29.1807 6.13965h10.2393v23.54c-6.27344 2.48535 -19.6699 7.18066 -40.96 7.18066z" />
    <glyph glyph-name="soccer-ball-outline" unicode="&#xf10c;" 
d="M253.08 427.52c7.71973 0.120117 15.4004 -0.199219 23 -0.839844c91.4395 -7.91992 173.8 -69.1992 203.92 -161.88c0.200195 -0.599609 0.320312 -1.24023 0.400391 -1.87988c38.8799 -123.04 -28.6406 -254.96 -151.601 -294.92
c-123.6 -40.1602 -256.64 27.6396 -296.8 151.2c-40.1602 123.6 27.6396 256.64 151.2 296.8c23.2002 7.51953 46.6797 11.2803 69.8799 11.5195zM201.6 400c-4.04004 -1.04004 -8.04004 -2.16016 -12.04 -3.48047c-49.2393 -16 -88.7197 -48.0391 -114.6 -88.4395
l12.4805 -50.3203l81.1992 -26.1201c0.240234 -0.0800781 0.44043 -0.120117 0.640625 -0.239258l76.7598 55.7598v85.1602zM310.36 400l-43.8408 -27.3604v-85.8799l76.2002 -55.3594l81.7207 25.8799l12.5996 50.8398c-29.4805 46 -75.1602 78.3994 -126.68 91.8799z
M81.4004 238.2l-40.1201 -33.7197c-1.48047 -25.9609 1.67969 -52.6406 10.2002 -78.9209c8.51953 -26.2793 21.6797 -49.7197 38.1992 -69.8799l51.6406 -3.63965l50.8799 70.04l-29.1602 89.8799c-0.240234 0.0400391 -0.44043 0.120117 -0.639648 0.200195zM431 237.92
l-82.04 -26l-29.1201 -89.7197l50.2803 -70.2002l52.0801 3.67969c33.7598 41.2002 51.7598 94.2002 48.5195 148.801zM208.8 110.08l-50.7197 -69.7998l19.6797 -48.6006c44.6807 -17.4795 95.4404 -20.1992 144.681 -4.19922
c4.04004 1.31934 7.95996 2.71973 11.7998 4.23926l19.4795 48l-50.3994 70.3604h-94.5205z" />
    <glyph glyph-name="cyclist" unicode="&#xf108;" 
d="M394.24 386.56c25.4395 0 46.0801 -20.6396 46.0801 -46.0791c0 -25.4404 -20.6406 -46.0801 -46.0801 -46.0801c-55.6807 0 -55.6006 61.4395 -107.521 61.4395c24.3203 13.4805 71.96 30.7197 107.521 30.7197zM276.8 334.4c14.1602 0 27.04 -4.80078 36.1602 -18.5605
c8.75977 -13.2402 69.4404 -92.4795 69.4404 -92.4795s64.1592 -14.0801 78.0801 -17.6006c13.9199 -3.51953 21.9199 -15.5195 18.5596 -26.2402c-3.12012 -9.95996 -13.2803 -14.8799 -26.5596 -11.8398c-8.68066 2 -74.2002 17.4404 -90.5605 21.4404
c-12.04 2.95996 -15.6797 7.36035 -18.2402 10.5596c-2.55957 3.2002 -31.2793 40.04 -36.1602 46.4004c-4.71973 6.2002 -8.71973 1.40039 -13.4395 -1.28027c-4.16016 -2.31934 -66.8799 -50.8799 -66.8799 -50.8799s32.96 -17.9199 51.8398 -31.3604
c19.1201 -13.6396 15.1602 -24.6797 12.4795 -41.2793c-2.59961 -16.1201 -21.1191 -115.84 -21.1191 -115.84s-5.88086 -19.8008 -24.6406 -17.2803c-18.7598 2.51953 -18.5596 24 -18.5596 24l14.3994 108.8s-31.7998 19.6396 -52.1592 32.3203
c-19.4805 12.1602 -56.3203 31.2793 -56.3203 55.04c0 23.7598 14.2002 38.3594 20.4795 43.5195c13.04 10.6406 34.2803 27.3203 61.4404 47.3604c22.1602 16.3594 47.2803 35.2002 61.7598 35.2002zM102.4 140.8c56.4395 0 102.399 -45.96 102.399 -102.399
c0 -56.4404 -45.96 -102.4 -102.399 -102.4c-56.4404 0 -102.4 45.96 -102.4 102.4c0 56.4395 45.96 102.399 102.4 102.399zM409.6 140.8c56.4404 0 102.4 -45.96 102.4 -102.399c0 -56.4404 -45.96 -102.4 -102.4 -102.4c-56.4395 0 -102.399 45.96 -102.399 102.4
c0 56.4395 45.96 102.399 102.399 102.399zM102.4 120.32c-45.3604 0 -81.9199 -36.5605 -81.9199 -81.9199c0 -45.3604 36.5596 -81.9199 81.9199 -81.9199c45.3594 0 81.9199 36.5596 81.9199 81.9199c0 45.3594 -36.5605 81.9199 -81.9199 81.9199zM409.6 120.32
c-45.3594 0 -81.9199 -36.5605 -81.9199 -81.9199c0 -45.3604 36.5605 -81.9199 81.9199 -81.9199c45.3604 0 81.9199 36.5596 81.9199 81.9199c0 45.3594 -36.5596 81.9199 -81.9199 81.9199z" />
    <glyph glyph-name="rugby" unicode="&#xf104;" 
d="M460.32 381.84c19.8799 -27.4395 26.2393 -76.8799 16.4795 -132.88c-7 -40 -28.5996 -117 -94.6396 -183.04c-73.1201 -73.1201 -168.12 -99.2002 -232.601 -99.2002c-35.5596 0 -64.5996 7.44043 -83.3193 21.04l74.1201 74.1201c4 4 4 10.4805 0 14.4805
s-10.4805 4 -14.4805 0l-74.0801 -74.0801c-41.7998 57.4395 -25.7998 211.92 78.1602 315.92c73.04 73.04 168.12 99.0801 232.68 99.0801c35.5605 0 64.5605 -7.40039 83.2402 -20.9199l-74.2402 -74.2402c-4 -4 -4 -10.4805 0 -14.4805c2 -2 4.60059 -3 7.24023 -3
s5.24023 1 7.24023 3zM355.4 195c4 4 4 10.4805 0 14.4805l-28.4805 28.4795c0.44043 1.67969 0.759766 3.40039 0.759766 5.24023s-0.319336 3.55957 -0.759766 5.24023l18.2402 18.2393c4 4 4 10.4805 0 14.4805s-10.4805 4 -14.4805 0l-18.2393 -18.2402
c-1.68066 0.44043 -3.40039 0.759766 -5.24023 0.759766s-3.56055 -0.319336 -5.24023 -0.759766l-28.4795 28.4805c-4 4 -10.4805 4 -14.4805 0s-4 -10.4805 0 -14.4805l28.4805 -28.4795c-0.44043 -1.68066 -0.760742 -3.40039 -0.760742 -5.24023
s0.320312 -3.56055 0.760742 -5.24023l-26.2402 -26.2402c-1.68066 0.44043 -3.40039 0.760742 -5.24023 0.760742s-3.55957 -0.320312 -5.24023 -0.760742l-28.4795 28.4805c-4 4 -10.4805 4 -14.4805 0s-4 -10.4805 0 -14.4805l28.4805 -28.4795
c-0.44043 -1.68066 -0.760742 -3.40039 -0.760742 -5.24023s0.320312 -3.55957 0.760742 -5.24023l-26.2402 -26.2402c-1.67969 0.44043 -3.40039 0.760742 -5.24023 0.760742s-3.55957 -0.320312 -5.24023 -0.760742l-28.4795 28.4805c-4 4 -10.4805 4 -14.4805 0
s-4 -10.4805 0 -14.4805l28.4805 -28.4795c-0.44043 -1.67969 -0.759766 -3.40039 -0.759766 -5.24023s0.319336 -3.55957 0.759766 -5.24023l-18.2402 -18.2393c-4 -4 -4 -10.4805 0 -14.4805c2 -2 4.60059 -3 7.24023 -3s5.24023 1 7.24023 3l18.2393 18.2402
c1.68066 -0.44043 3.40039 -0.759766 5.24023 -0.759766s3.56055 0.319336 5.24023 0.759766l28.4795 -28.4805c2 -2 4.60059 -3 7.24023 -3c2.64062 0 5.24023 1 7.24023 3c4 4 4 10.4805 0 14.4805l-28.4805 28.4795c0.44043 1.68066 0.760742 3.40039 0.760742 5.24023
s-0.320312 3.56055 -0.760742 5.24023l26.2402 26.2402c1.68066 -0.44043 3.40039 -0.760742 5.24023 -0.760742s3.55957 0.320312 5.24023 0.760742l28.4795 -28.4805c2 -2 4.60059 -3 7.24023 -3s5.24023 1 7.24023 3c4 4 4 10.4805 0 14.4805l-28.4805 28.4795
c0.44043 1.68066 0.760742 3.40039 0.760742 5.24023s-0.320312 3.55957 -0.760742 5.24023l26.2402 26.2402c1.67969 -0.44043 3.40039 -0.760742 5.24023 -0.760742s3.55957 0.320312 5.24023 0.760742l28.4795 -28.4805c2 -2 4.59961 -3 7.24023 -3
c2.63965 0 5.24023 1 7.24023 3z" />
    <glyph glyph-name="caret-arrowhead-facing-down" unicode="&#xf114;" 
d="M49.5996 315.84l206.4 -206.399l206.4 206.399l21.4395 -21.4395l-227.84 -227.841l-227.84 227.841z" />
    <glyph glyph-name="soccer-ball" unicode="&#xf102;" 
d="M256 427.52c57.8398 0 110.88 -21 151.96 -55.7598c-109.6 34.96 -203.88 2 -231.8 -9.75977c-2.67969 14.5596 -3.71973 26.6797 -4 35.2002c0 0.160156 -0.320312 6.63965 -0.600586 14.6396c26.2402 10.0801 54.6807 15.6797 84.4404 15.6797zM151.4 402.96
c0.15918 -3.71973 0.279297 -6.28027 0.279297 -6.59961c1.28027 -34.5205 13.1201 -122.88 92.6406 -206.801c-7.08008 -24.1592 -16 -45.4795 -25.9199 -64.1191c-26.2803 21.04 -105.24 95.4395 -107.4 230.079c-0.240234 9.24023 -0.280273 16.2002 -0.160156 21.7607
c12.5605 9.83984 26.1201 18.4795 40.5605 25.6797zM307.68 367c29.3203 -0.0800781 61.96 -4.2002 96.2002 -15.3604c0.280273 -0.0800781 16.2803 -5.04004 36.8799 -13.8398c20.04 -25.3193 35.04 -54.7998 43.3604 -86.96
c-0.520508 0.280273 -0.919922 0.520508 -1.44043 0.839844c-132.92 77.1201 -252.52 35.3203 -276.72 25.4404c-12.2803 23.3203 -20.2402 45.3203 -25.2803 64.5596c14 6.24023 62.4805 25.5205 127 25.3203zM90.4004 359.28
c0.0400391 -1.40039 0.0400391 -2.64062 0.0800781 -4.16016c2.39941 -146.72 91.3193 -227.04 117.64 -247.64c-14.2002 -22.9609 -29.6396 -41.3203 -44.04 -55.6006c-21.96 16.2803 -95.2803 77.5205 -118.88 185.48
c-0.0800781 0.279297 -4.44043 18.9199 -7.28027 43.4395c12.1201 29.6406 30.0801 56.3203 52.4805 78.4805zM308.52 276.84c45.6006 1.24023 103.16 -7.63965 163.961 -42.9199c7.03906 -4 12.3994 -7.24023 16.7998 -9.95996
c1.43945 -10.4404 2.23926 -21.1201 2.23926 -31.96c0 -4.95996 -0.199219 -9.83984 -0.479492 -14.7197c-2.2002 1.16016 -3.67969 1.91992 -3.91992 2.08008c-30.6797 16.4795 -113.88 51.4395 -227.88 24.1992c-17.6006 18.5605 -31.8398 37.3604 -43.0801 55.6406
c13.0801 5.12012 46.7598 16.4395 92.3594 17.6396zM24.5996 235.68c0.360352 -1.63965 0.600586 -2.67969 0.640625 -2.87988c23.96 -109.6 96.5596 -174.2 123.56 -195c-11.3994 -9.67969 -21.4395 -16.7598 -28.7197 -21.3193
c-2.67969 -1.7207 -7.12012 -4.52051 -12 -7.56055c-53.4004 43.2002 -87.5996 109.2 -87.5996 183.08c0 14.9199 1.43945 29.5195 4.11914 43.6797zM352.96 193.08c26.9199 -0.879883 50.4805 -5.12012 70.1201 -10.5205c-3 -26.8398 -19.1602 -121.199 -101.08 -195.88
c-0.200195 -0.199219 -14 -13.1992 -33.7197 -27.9199c-10.5605 -1.47949 -21.3203 -2.2793 -32.2803 -2.2793c-21.4805 0 -42.2402 2.95996 -62 8.31934c1.16016 0.719727 2.16016 1.32031 3.40039 2.08008c126.119 75.7197 151 193.64 155.56 226.2zM332.28 192.96
c-5 -32.8799 -29.7607 -139.08 -145.521 -208.6c-7.75977 -4.7207 -13.6797 -8.2002 -18.5195 -10.8799c-14.96 6.03906 -29.2002 13.5596 -42.4805 22.3594c3 1.91992 5 3.16016 5.28027 3.36035c29.3203 18.4395 100.12 73.0801 132.92 184.439
c24.3604 5.84082 47.2002 8.64062 68.3203 9.32031zM442.96 176.36c14.9199 -5.28027 26.6396 -10.8408 34.5205 -15.0801c2.59961 -1.40039 6.67969 -3.56055 11.1592 -5.95996c-13.5195 -86.3604 -74.1992 -157.2 -154.72 -185.561
c1.16016 1.08008 1.87988 1.7207 2.04004 1.87988c83 75.6807 102.56 171 107 204.721z" />
    <glyph glyph-name="location-marker" unicode="&#xf10f;" 
d="M256 437.76c90.3203 0 163.84 -73.5195 163.84 -163.84c0 -141.439 -149.8 -316.76 -156.16 -324.16c-1.95996 -2.24023 -4.51953 -3.31934 -7.67969 -3.51953c-2.95996 0 -5.71973 1.2793 -7.67969 3.51953c-6.36035 7.28027 -156.16 179.641 -156.16 324.16
c0 90.3203 73.5195 163.84 163.84 163.84zM256 325.12c-33.9199 0 -61.4404 -27.5205 -61.4404 -61.4404s27.5205 -61.4395 61.4404 -61.4395s61.4404 27.5195 61.4404 61.4395s-27.5205 61.4404 -61.4404 61.4404z" />
    <glyph glyph-name="golf-ball" unicode="&#xf107;" 
d="M256 427.52c96 0 174.08 -78.0791 174.08 -174.079c0 -66.4404 -37.5996 -124.28 -92.4805 -153.601h-163.199c-54.8809 29.3203 -92.4805 87.1602 -92.4805 153.601c0 96 78.0801 174.079 174.08 174.079zM358.4 253.44c-5.64062 0 -10.2402 -4.60059 -10.2402 -10.2402
c0 -5.64062 4.59961 -10.2402 10.2402 -10.2402c5.63965 0 10.2393 4.59961 10.2393 10.2402c0 5.63965 -4.59961 10.2402 -10.2393 10.2402zM327.68 222.72c-5.63965 0 -10.2393 -4.59961 -10.2393 -10.2393c0 -5.64062 4.59961 -10.2402 10.2393 -10.2402
c5.64062 0 10.2402 4.59961 10.2402 10.2402c0 5.63965 -4.59961 10.2393 -10.2402 10.2393zM368.64 212.48c-5.63965 0 -10.2393 -4.60059 -10.2393 -10.2402c0 -5.64062 4.59961 -10.2402 10.2393 -10.2402c5.64062 0 10.2402 4.59961 10.2402 10.2402
c0 5.63965 -4.59961 10.2402 -10.2402 10.2402zM296.96 192c-5.63965 0 -10.2402 -4.59961 -10.2402 -10.2402c0 -5.63965 4.60059 -10.2402 10.2402 -10.2402s10.2402 4.60059 10.2402 10.2402c0 5.64062 -4.60059 10.2402 -10.2402 10.2402zM337.92 181.76
c-5.63965 0 -10.2402 -4.59961 -10.2402 -10.2402c0 -5.63965 4.60059 -10.2393 10.2402 -10.2393s10.2402 4.59961 10.2402 10.2393c0 5.64062 -4.60059 10.2402 -10.2402 10.2402zM266.24 161.28c-5.64062 0 -10.2402 -4.60059 -10.2402 -10.2402
s4.59961 -10.2402 10.2402 -10.2402c5.63965 0 10.2402 4.60059 10.2402 10.2402s-4.60059 10.2402 -10.2402 10.2402zM307.2 151.04c-5.64062 0 -10.2402 -4.59961 -10.2402 -10.2402c0 -5.63965 4.59961 -10.2402 10.2402 -10.2402
c5.63965 0 10.2402 4.60059 10.2402 10.2402c0 5.64062 -4.60059 10.2402 -10.2402 10.2402zM174.08 79.3604h163.84c5.67969 0 10.2402 -4.56055 10.2402 -10.2402c0 -4.40039 -2.83984 -8.2002 -7.04004 -9.60059c-32.5605 -10.8799 -64.6396 -41.1992 -64.6396 -75.5195
v-7.04004h138.239c3.68066 0.0400391 7.12012 -1.87988 9 -5.08008c1.83984 -3.2002 1.83984 -7.12012 0 -10.3203c-1.87988 -3.19922 -5.31934 -5.11914 -9 -5.0791h-317.439c-5.64062 -0.280273 -10.4404 4.11914 -10.7207 9.75977
c-0.279297 5.63965 4.12012 10.4395 9.76074 10.7197h0.959961h138.239v7.04004c0 34.3203 -32.0791 64.6396 -64.6396 75.5195c-4.2002 1.40039 -7.04004 5.2002 -7.04004 9.60059c0 5.67969 4.60059 10.2402 10.2402 10.2402z" />
    <glyph glyph-name="swimming" unicode="&#xf100;" 
d="M230.4 314.88c8.87988 0 16.6797 -4.51953 21.2793 -11.3994l90.1201 -140.761l-0.0400391 -0.120117c4 -6.2793 6.40039 -13.7598 6.40039 -21.7998c0 -4.04004 -0.600586 -7.95996 -1.71973 -11.6797c7.11914 0.879883 14.4395 1.43945 22.1992 1.43945
c73.3203 0 138.681 -42.5596 138.681 -42.5596c4.75977 -3.08008 6.12012 -9.40039 3.08008 -14.2002c-3.08008 -4.75977 -9.40039 -6.12012 -14.2002 -3.08008c0 0 -62.3203 39.3604 -127.561 39.3604c-32.6396 0 -57.8398 -9.63965 -88.3594 -19.96
c-30.5605 -10.2803 -66.04 -21 -116.44 -21c-101.52 0 -160.56 53.9199 -160.56 53.9199c-3.08008 2.75977 -4.2002 7.16016 -2.7998 11.0801c1.39941 3.91992 5.03906 6.59961 9.19922 6.75977c2.80078 0.120117 5.48047 -0.879883 7.52051 -2.7998
c0 0 25.5996 -23.6396 73.2402 -37.9199l163.439 99.5195l-32.8799 53.3203l-101.64 -47.8799l-0.0400391 0.120117c-3.56055 -1.83984 -7.52051 -3 -11.8008 -3c-14.1592 0 -25.5996 11.4395 -25.5996 25.5996c0 10.2002 6 18.96 14.6396 23.04v0.0800781l120.12 59.9199
h0.120117c3.91992 2.48047 8.60059 4 13.6006 4zM409.6 263.68c28.2803 0 51.2002 -22.9199 51.2002 -51.1992c0 -28.2803 -22.9199 -51.2002 -51.2002 -51.2002c-28.2793 0 -51.1992 22.9199 -51.1992 51.2002c0 28.2793 22.9199 51.1992 51.1992 51.1992z" />
  </font>
</defs>
</svg>
